<svg width="453" height="143" viewBox="0 0 453 143" fill="none" xmlns="http://www.w3.org/2000/svg">
<g filter="url(#filter0_d)">
<path d="M53.17 62.67C52.1433 64.63 50.93 67.2667 49.53 70.58C48.13 73.8467 46.59 77.3 44.91 80.94C46.2633 78.2333 47.57 75.55 48.83 72.89C50.1367 70.23 51.5133 67.4533 52.96 64.56C52.4933 66.5667 51.9333 68.4567 51.28 70.23C50.6733 71.9567 49.9733 73.6367 49.18 75.27C48.4333 76.9033 47.64 78.56 46.8 80.24C45.96 81.92 45.12 83.6933 44.28 85.56L43.09 86.26C42.2967 88.1733 41.4567 90.11 40.57 92.07C39.73 93.9833 38.7033 95.8033 37.49 97.53C36.3233 99.2567 34.9467 100.82 33.36 102.22C31.7733 103.62 29.9067 104.74 27.76 105.58C27.06 105.16 26.3367 104.693 25.59 104.18C24.8433 103.667 24.0967 103.247 23.35 102.92C23.35 102.873 23.3267 102.827 23.28 102.78C23.28 102.733 23.28 102.663 23.28 102.57C23.28 102.197 23.3033 101.59 23.35 100.75C23.4433 99.9567 23.5367 99.14 23.63 98.3C23.7233 97.46 23.7933 96.7133 23.84 96.06C23.9333 95.36 23.98 94.94 23.98 94.8L23.56 95.22C23.56 95.5467 23.5133 96.0367 23.42 96.69C23.3733 97.2967 23.28 97.95 23.14 98.65C23.0467 99.35 22.9533 100.027 22.86 100.68C22.8133 101.38 22.79 101.94 22.79 102.36V102.71L28.18 106C29.5333 105.86 30.9567 105.067 32.45 103.62C33.99 102.173 35.46 100.47 36.86 98.51C38.26 96.55 39.52 94.5667 40.64 92.56C41.62 90.8333 42.39 89.41 42.95 88.29C42.2967 89.69 41.5033 91.3 40.57 93.12C39.5433 95.1267 38.3767 97.0633 37.07 98.93C35.81 100.797 34.4333 102.407 32.94 103.76C31.4467 105.16 29.8833 106 28.25 106.28L22.72 103.06C22.6267 102.873 22.58 102.663 22.58 102.43C22.58 101.683 22.6967 100.657 22.93 99.35C23.1633 98.0433 23.28 96.9467 23.28 96.06V95.5C23.0467 95.7333 22.6967 96.1767 22.23 96.83C21.7633 97.4833 21.2267 98.16 20.62 98.86C20.06 99.5133 19.4767 100.097 18.87 100.61C18.31 101.123 17.8433 101.38 17.47 101.38C16.6767 100.867 15.93 100.307 15.23 99.7C14.53 99.14 13.8067 98.58 13.06 98.02C12.7333 96.5733 12.2433 95.1267 11.59 93.68C10.9833 92.2333 10.33 90.81 9.63 89.41C8.93 87.9633 8.27667 86.5167 7.67 85.07C7.06333 83.6233 6.64333 82.13 6.41 80.59C6.03667 78.35 5.45333 76.11 4.66 73.87C3.91333 71.63 3.26 69.39 2.7 67.15L2.98 67.29C3.21333 67.1967 3.42333 67.0567 3.61 66.87C3.84333 66.6833 4.05333 66.59 4.24 66.59C4.52 66.59 4.77667 66.8467 5.01 67.36C5.24333 67.8267 5.43 68.3867 5.57 69.04C5.75667 69.6467 5.89667 70.2533 5.99 70.86C6.13 71.42 6.22333 71.7933 6.27 71.98L7.11 71.77C7.01667 70.7433 6.92333 69.74 6.83 68.76C6.73667 67.7333 6.69 66.7067 6.69 65.68V64.98C6.69 64.6533 6.71333 64.3033 6.76 63.93C6.85333 63.5567 6.94667 63.23 7.04 62.95C7.18 62.67 7.36667 62.53 7.6 62.53C8.16 62.53 8.79 63.3 9.49 64.84C10.19 66.38 10.9133 68.27 11.66 70.51C12.4067 72.7033 13.13 75.0133 13.83 77.44C14.5767 79.8667 15.2533 81.99 15.86 83.81C16 84.2767 16.1867 84.8367 16.42 85.49C16.7 86.0967 16.9567 86.7033 17.19 87.31C17.4233 87.9167 17.6333 88.4767 17.82 88.99C18.0533 89.4567 18.1933 89.7833 18.24 89.97C18.38 89.27 18.6133 88.3133 18.94 87.1C19.2667 85.84 19.5933 84.5333 19.92 83.18C20.2933 81.78 20.6433 80.4733 20.97 79.26C21.3433 78 21.6467 77.0433 21.88 76.39C22.2533 76.3433 22.6033 76.32 22.93 76.32C23.2567 76.2733 23.56 76.25 23.84 76.25C24.7733 76.25 25.6133 76.3667 26.36 76.6C27.1067 76.7867 28.0633 77.1133 29.23 77.58C29.5567 78.28 29.8133 79.1667 30 80.24C30.1867 81.3133 30.3267 82.4567 30.42 83.67C30.56 84.8833 30.63 86.12 30.63 87.38C30.6767 88.64 30.7 89.8067 30.7 90.88V93.68C32.6133 90.88 34.27 88.0333 35.67 85.14C37.1167 82.2 38.54 79.2133 39.94 76.18C40.08 75.8533 40.3133 75.2933 40.64 74.5C40.9667 73.7067 41.34 72.82 41.76 71.84C42.2267 70.86 42.6933 69.8333 43.16 68.76C43.6733 67.64 44.1633 66.6367 44.63 65.75C45.0967 64.8633 45.5167 64.14 45.89 63.58C46.31 62.9733 46.6367 62.67 46.87 62.67L47.29 62.88C46.5433 64.6067 45.7967 66.2633 45.05 67.85C44.35 69.4367 43.6267 71 42.88 72.54C42.18 74.08 41.48 75.6667 40.78 77.3C40.08 78.8867 39.38 80.5433 38.68 82.27L47.5 63.3L48.2 63.93L48.55 63.72C48.6433 63.3933 48.8067 62.9267 49.04 62.32C49.32 61.7133 49.6233 61.1067 49.95 60.5C50.3233 59.8933 50.6967 59.3567 51.07 58.89C51.49 58.4233 51.91 58.19 52.33 58.19C52.5167 58.19 52.68 58.2833 52.82 58.47C52.96 58.6567 53.0533 58.89 53.1 59.17C53.1933 59.45 53.2633 59.73 53.31 60.01C53.3567 60.2433 53.38 60.43 53.38 60.57L53.17 62.67ZM19.5 91.16C19.7333 90.4133 19.99 89.5733 20.27 88.64C20.5967 87.66 20.9233 86.6333 21.25 85.56C21.6233 84.4867 21.95 83.4833 22.23 82.55C22.5567 81.57 22.8133 80.7767 23 80.17C23.1867 79.5167 23.28 79.1433 23.28 79.05V78.98L22.51 79.54H22.23C21.9967 80.52 21.7167 81.57 21.39 82.69C21.0633 83.7633 20.7367 84.86 20.41 85.98C20.0833 87.1 19.78 88.22 19.5 89.34C19.2667 90.4133 19.1267 91.4167 19.08 92.35C19.1267 92.21 19.2667 91.8133 19.5 91.16ZM27.62 104.67C28.9267 104.483 30.2567 103.76 31.61 102.5C33.01 101.24 34.3167 99.8167 35.53 98.23C36.7433 96.5967 37.8167 94.9633 38.75 93.33C39.73 91.65 40.4767 90.2733 40.99 89.2L42.18 86.61C41.2 88.57 40.1967 90.46 39.17 92.28C38.05 94.24 36.9067 96.0133 35.74 97.6C34.5733 99.1867 33.3833 100.54 32.17 101.66C30.9567 102.78 29.7667 103.527 28.6 103.9L27.34 104.46L24.47 102.5C24.47 102.22 24.4933 101.777 24.54 101.17C24.6333 100.61 24.7033 100.003 24.75 99.35C24.8433 98.6967 24.9133 98.0667 24.96 97.46C25.0533 96.8533 25.1 96.34 25.1 95.92C25.0533 96.2933 24.9833 96.8067 24.89 97.46C24.7967 98.0667 24.68 98.6733 24.54 99.28C24.4467 99.9333 24.3533 100.54 24.26 101.1C24.2133 101.66 24.19 102.08 24.19 102.36C24.19 102.593 24.3067 102.827 24.54 103.06C24.82 103.293 25.1233 103.503 25.45 103.69C25.8233 103.923 26.1967 104.133 26.57 104.32C26.99 104.507 27.3167 104.67 27.55 104.81L27.62 104.67ZM38.54 82.62C37.3733 85 36.1833 87.3567 34.97 89.69C33.7567 92.0233 32.2633 94.17 30.49 96.13V96.34C32.2633 94.38 33.78 92.21 35.04 89.83C36.3 87.4033 37.4667 85 38.54 82.62ZM26.78 99.35L27.27 95.57L26.08 99.21L26.78 99.35ZM16.91 94.8C16.77 94.8 16.5833 94.94 16.35 95.22C16.1633 95.4533 15.9533 95.7333 15.72 96.06C15.4867 96.34 15.2767 96.6433 15.09 96.97C14.9033 97.25 14.7867 97.4367 14.74 97.53L14.81 97.6C14.9033 97.5533 15.0667 97.4133 15.3 97.18C15.5333 96.9 15.7667 96.62 16 96.34C16.2333 96.0133 16.4433 95.71 16.63 95.43C16.8167 95.15 16.9567 94.9633 17.05 94.87L16.91 94.8ZM30.84 100.12C30.14 99.7 29.3467 99.49 28.46 99.49L27.48 99.56C27.9933 99.6533 28.5067 99.77 29.02 99.91C29.5333 100.05 30.0467 100.12 30.56 100.12H30.84ZM24.89 93.4V94.03C24.89 93.9367 24.89 93.8667 24.89 93.82C24.9367 93.68 24.96 93.54 24.96 93.4H24.89ZM24.96 94.66C24.96 94.5667 24.9367 94.4967 24.89 94.45C24.89 94.4967 24.9133 94.5667 24.96 94.66ZM43.23 87.73C43.1367 87.9167 43.0433 88.1033 42.95 88.29C43.0433 88.1033 43.1367 87.9167 43.23 87.73ZM258.937 80.66C257.677 80.66 256.721 80.6367 256.067 80.59C255.461 80.5433 254.901 80.52 254.387 80.52C252.987 80.52 251.751 80.59 250.677 80.73C249.604 80.87 248.694 81.15 247.947 81.57C247.201 81.99 246.641 82.5967 246.267 83.39C245.894 84.1833 245.707 85.2333 245.707 86.54C245.707 88.4533 245.917 89.8767 246.337 90.81C246.804 91.6967 247.434 92.35 248.227 92.77C249.067 93.1433 250.071 93.3767 251.237 93.47C252.404 93.5633 253.711 93.7733 255.157 94.1C255.997 94.1933 256.837 94.2633 257.677 94.31C258.517 94.31 259.357 94.31 260.197 94.31H265.237C262.904 94.17 260.571 94.1 258.237 94.1C255.951 94.0533 253.874 93.8433 252.007 93.47C250.187 93.0967 248.694 92.4433 247.527 91.51C246.407 90.5767 245.847 89.1533 245.847 87.24C245.847 85.7 246.034 84.5333 246.407 83.74C246.827 82.9 247.364 82.2933 248.017 81.92C248.717 81.5 249.534 81.2667 250.467 81.22C251.401 81.1267 252.404 81.08 253.477 81.08C254.784 81.08 256.114 81.15 257.467 81.29C256.394 81.6167 255.297 81.8733 254.177 82.06C253.104 82.2 252.101 82.3633 251.167 82.55C250.234 82.69 249.417 82.9 248.717 83.18C248.064 83.4133 247.621 83.7633 247.387 84.23V87.38L246.827 87.66C247.014 88.8267 247.177 89.7133 247.317 90.32C247.504 90.88 247.971 91.3233 248.717 91.65C249.464 91.93 250.654 92.1633 252.287 92.35C253.967 92.5367 256.394 92.84 259.567 93.26H264.607C265.494 93.26 266.007 93.2367 266.147 93.19C266.334 93.0967 266.451 93.05 266.497 93.05L265.867 89.27C265.774 88.3367 265.657 87.4967 265.517 86.75C265.377 86.0033 265.191 85.21 264.957 84.37C264.911 84.51 264.771 84.58 264.537 84.58C264.771 85.3733 264.957 86.2133 265.097 87.1C265.284 87.9867 265.424 88.8267 265.517 89.62C265.657 90.4133 265.751 91.09 265.797 91.65C265.891 92.21 265.984 92.5367 266.077 92.63L265.657 92.77C265.564 92.8167 265.424 92.84 265.237 92.84H264.817C264.491 92.84 264.117 92.8167 263.697 92.77C263.277 92.6767 262.741 92.63 262.087 92.63H259.777C257.957 92.63 256.277 92.5367 254.737 92.35C253.291 92.1633 252.031 91.93 250.957 91.65C252.031 91.8833 253.337 92.07 254.877 92.21C256.511 92.3967 258.027 92.49 259.427 92.49C260.034 92.49 260.664 92.49 261.317 92.49C262.017 92.4433 262.764 92.42 263.557 92.42H265.867C265.727 92.28 265.564 92.21 265.377 92.21H265.237C265.051 88.99 264.631 85.91 263.977 82.97C263.324 80.03 262.274 77.4633 260.827 75.27C259.381 73.03 257.491 71.2567 255.157 69.95C252.824 68.5967 249.907 67.92 246.407 67.92C245.427 67.92 244.447 67.99 243.467 68.13C242.487 68.27 241.484 68.4567 240.457 68.69C240.551 68.5967 240.597 68.5033 240.597 68.41C240.597 68.1767 240.504 67.9667 240.317 67.78C240.131 67.5467 240.037 67.3133 240.037 67.08C240.037 66.8 240.317 66.5433 240.877 66.31C241.484 66.03 242.744 65.7733 244.657 65.54C244.564 65.4467 244.494 65.3067 244.447 65.12C244.447 64.9333 244.447 64.7933 244.447 64.7C241.927 64.7 239.967 64.6533 238.567 64.56C237.167 64.42 236.467 64.07 236.467 63.51C236.467 63.2767 236.747 62.95 237.307 62.53C237.914 62.11 238.754 61.7133 239.827 61.34C240.901 60.92 242.184 60.57 243.677 60.29C245.217 59.9633 246.921 59.8 248.787 59.8C252.381 59.8 255.461 60.36 258.027 61.48C260.594 62.5533 262.741 64 264.467 65.82C266.241 67.5933 267.664 69.6233 268.737 71.91C269.857 74.1967 270.744 76.5067 271.397 78.84C272.097 81.1267 272.611 83.3667 272.937 85.56C273.264 87.7067 273.567 89.5733 273.847 91.16C273.847 91.44 273.847 91.72 273.847 92C273.894 92.28 273.917 92.6067 273.917 92.98C273.917 94.3333 273.661 95.5233 273.147 96.55C272.681 97.53 272.004 98.3467 271.117 99C270.277 99.7 269.274 100.213 268.107 100.54C266.987 100.913 265.774 101.1 264.467 101.1C263.441 101.1 262.111 101.077 260.477 101.03C258.844 100.983 257.281 100.843 255.787 100.61C254.807 100.377 253.734 100.19 252.567 100.05C251.401 99.9567 250.211 99.77 248.997 99.49C247.784 99.21 246.594 98.8133 245.427 98.3C244.307 97.7867 243.281 97.0167 242.347 95.99C241.461 94.9167 240.737 93.54 240.177 91.86C239.664 90.18 239.407 88.0567 239.407 85.49C239.407 83.0633 239.967 81.1267 241.087 79.68C242.207 78.1867 243.537 77.0433 245.077 76.25C246.664 75.41 248.274 74.8733 249.907 74.64C251.541 74.36 252.871 74.22 253.897 74.22C255.204 74.22 256.067 74.3133 256.487 74.5C256.907 74.6867 257.117 74.8733 257.117 75.06C257.117 75.2 257.094 75.3167 257.047 75.41C255.881 75.41 254.387 75.4567 252.567 75.55C250.747 75.6433 248.974 75.9467 247.247 76.46C245.567 76.9733 244.121 77.7667 242.907 78.84C241.694 79.8667 241.087 81.3367 241.087 83.25C241.507 81.5233 242.207 80.17 243.187 79.19C244.214 78.1633 245.381 77.4167 246.687 76.95C247.994 76.4367 249.324 76.1333 250.677 76.04C252.077 75.9 253.337 75.83 254.457 75.83H256.837C256.651 76.0167 256.557 76.2033 256.557 76.39C256.557 76.5767 256.651 76.74 256.837 76.88H259.567C260.314 77.02 260.851 77.2767 261.177 77.65C261.504 77.9767 261.667 78.28 261.667 78.56C261.667 78.98 261.457 79.3533 261.037 79.68C260.617 80.0067 259.917 80.3333 258.937 80.66ZM247.177 97.6C248.484 98.1133 249.814 98.51 251.167 98.79C252.567 99.07 253.944 99.2567 255.297 99.35C256.651 99.49 257.911 99.56 259.077 99.56C258.144 99.4667 257.211 99.3033 256.277 99.07C255.297 98.8367 254.434 98.6267 253.687 98.44C252.894 98.2533 252.101 98.1367 251.307 98.09C250.561 97.9967 249.767 97.88 248.927 97.74C248.134 97.6 247.317 97.39 246.477 97.11C245.637 96.7833 244.797 96.3167 243.957 95.71C244.844 96.5033 245.917 97.1333 247.177 97.6ZM247.877 90.25C247.831 90.2033 247.971 90.3433 248.297 90.67C248.577 90.95 248.951 91.16 249.417 91.3C249.184 91.2067 248.834 91.09 248.367 90.95C247.854 90.7633 247.597 90.4833 247.597 90.11L247.877 90.25ZM249.627 91.3C249.581 91.3 249.511 91.3 249.417 91.3C249.464 91.3 249.534 91.3 249.627 91.3ZM346.641 95.29C344.587 96.13 342.464 96.7833 340.271 97.25C338.124 97.7167 335.931 97.95 333.691 97.95C331.637 97.95 329.631 97.7167 327.671 97.25C325.711 96.7833 323.914 96.0367 322.281 95.01C320.647 93.9833 319.201 92.6533 317.941 91.02C316.727 89.34 315.794 87.3333 315.141 85C315.281 87.0533 315.841 88.8267 316.821 90.32C317.801 91.7667 319.014 93.0267 320.461 94.1C321.954 95.1267 323.587 95.9667 325.361 96.62C327.134 97.2733 328.837 97.81 330.471 98.23C330.704 98.2767 331.031 98.3 331.451 98.3C334.204 98.3 336.701 98.0667 338.941 97.6C341.181 97.1333 343.467 96.6433 345.801 96.13C345.054 96.7367 344.144 97.2733 343.071 97.74C342.044 98.16 340.901 98.5333 339.641 98.86C338.427 99.14 337.144 99.35 335.791 99.49C334.437 99.6767 333.084 99.77 331.731 99.77H330.961C330.727 99.77 330.494 99.7467 330.261 99.7L329.771 98.79C328.091 98.6033 326.341 98.1833 324.521 97.53C322.701 96.8767 321.021 95.9667 319.481 94.8C317.987 93.5867 316.727 92.1167 315.701 90.39C314.721 88.6633 314.231 86.6567 314.231 84.37C314.231 82.4567 314.487 80.59 315.001 78.77C315.514 76.95 316.191 75.1767 317.031 73.45C316.984 73.4967 316.914 73.52 316.821 73.52C316.681 73.52 316.611 73.4267 316.611 73.24C315.771 74.92 315.047 76.67 314.441 78.49C313.881 80.2633 313.601 82.2 313.601 84.3C313.601 86.54 314.114 88.5233 315.141 90.25C316.167 91.9767 317.381 93.4467 318.781 94.66C320.227 95.8267 321.697 96.7833 323.191 97.53C324.544 98.1833 325.664 98.65 326.551 98.93C325.104 98.51 323.634 97.9033 322.141 97.11C320.554 96.27 319.107 95.22 317.801 93.96C316.541 92.6533 315.491 91.16 314.651 89.48C313.811 87.7533 313.391 85.8633 313.391 83.81C313.391 80.87 313.927 78.1167 315.001 75.55C316.074 72.9833 317.497 70.7667 319.271 68.9C321.044 66.9867 323.074 65.4933 325.361 64.42C327.694 63.3 330.097 62.74 332.571 62.74C332.991 62.6467 333.504 62.6 334.111 62.6C334.764 62.5533 335.301 62.53 335.721 62.53C337.214 62.8567 338.707 63.2533 340.201 63.72C341.741 64.1867 343.257 64.84 344.751 65.68C344.564 65.7733 344.424 65.9133 344.331 66.1C344.284 66.24 344.237 66.4267 344.191 66.66C344.144 66.8467 344.051 67.01 343.911 67.15C343.817 67.29 343.631 67.36 343.351 67.36C343.117 67.36 342.767 67.29 342.301 67.15C341.834 67.01 341.181 66.8 340.341 66.52C340.201 66.66 340.131 66.87 340.131 67.15C341.251 67.71 342.021 68.3633 342.441 69.11C342.861 69.81 343.071 70.4867 343.071 71.14C343.071 71.4667 342.721 71.7467 342.021 71.98C341.414 71.98 340.457 71.8633 339.151 71.63C337.891 71.3967 336.467 71.28 334.881 71.28C334.181 71.28 333.411 71.3267 332.571 71.42C331.731 71.4667 330.891 71.6067 330.051 71.84C329.211 72.0267 328.417 72.33 327.671 72.75C326.924 73.1233 326.317 73.6367 325.851 74.29C325.291 75.0367 324.777 75.8767 324.311 76.81C323.844 77.7433 323.424 78.7 323.051 79.68C322.677 80.6133 322.374 81.5233 322.141 82.41C321.954 83.2967 321.861 84.09 321.861 84.79C321.861 85.4433 322.164 86.19 322.771 87.03C323.377 87.8233 324.147 88.5933 325.081 89.34C326.061 90.04 327.157 90.6467 328.371 91.16C329.631 91.6733 330.891 91.93 332.151 91.93C332.757 91.93 333.481 91.8367 334.321 91.65C335.207 91.4633 336.094 91.2533 336.981 91.02C337.914 90.74 338.824 90.5067 339.711 90.32C340.597 90.1333 341.344 90.04 341.951 90.04C342.511 90.04 342.861 90.11 343.001 90.25C343.187 90.3433 343.281 90.5533 343.281 90.88C342.207 91.2533 341.087 91.6267 339.921 92C339.174 92.2333 338.451 92.4667 337.751 92.7L339.921 92.14C341.041 91.8133 342.161 91.4633 343.281 91.09C343.281 91.3233 343.281 91.5333 343.281 91.72C343.327 91.9067 343.467 92.1167 343.701 92.35L344.401 92.07C344.774 91.93 345.171 91.7433 345.591 91.51C346.524 91.51 347.154 91.6033 347.481 91.79C347.854 91.9767 348.041 92.2567 348.041 92.63C348.041 92.8633 347.994 93.0733 347.901 93.26C347.854 93.4 347.761 93.5633 347.621 93.75C347.527 93.89 347.387 94.0767 347.201 94.31C347.014 94.5433 346.827 94.87 346.641 95.29ZM321.231 86.89C321.604 87.73 322.164 88.5467 322.911 89.34C323.657 90.0867 324.497 90.7633 325.431 91.37C326.411 91.93 327.437 92.3967 328.511 92.77C329.537 93.1433 330.564 93.3533 331.591 93.4C330.657 93.3067 329.677 93.0733 328.651 92.7C327.577 92.3267 326.551 91.86 325.571 91.3C324.637 90.6933 323.774 90.0167 322.981 89.27C322.234 88.5233 321.651 87.73 321.231 86.89ZM337.331 92.77C337.471 92.7233 337.611 92.7 337.751 92.7C337.611 92.7 337.471 92.7233 337.331 92.77ZM326.831 99C326.737 99 326.644 98.9767 326.551 98.93C326.644 98.9767 326.737 99 326.831 99Z" fill="#4285F4"/>
<path d="M59.4098 95.36C59.5965 94.0533 59.7598 92.5367 59.8998 90.81C60.0865 89.0367 60.2498 87.2633 60.3898 85.49C60.5298 83.7167 60.6698 81.99 60.8098 80.31C60.9498 78.5833 61.0898 77.09 61.2298 75.83C60.9965 77.09 60.7865 78.5367 60.5998 80.17C60.4132 81.8033 60.2265 83.4833 60.0398 85.21C59.8532 86.9367 59.6665 88.6633 59.4798 90.39C59.2932 92.07 59.1298 93.5867 58.9898 94.94C58.2898 94.4733 57.9398 93.8433 57.9398 93.05C57.9398 92.1167 57.9632 91.3467 58.0098 90.74C58.0565 90.0867 58.1265 89.34 58.2198 88.5L58.9898 87.8C58.9432 87.5667 58.9198 87.3567 58.9198 87.17V86.47C58.9198 85.3967 59.0365 84.1833 59.2698 82.83C59.5032 81.43 59.7598 80.03 60.0398 78.63C60.3665 77.1833 60.6465 75.8067 60.8798 74.5C61.1132 73.1467 61.2298 71.98 61.2298 71L60.3898 70.79C60.2965 71.91 60.1565 73.1933 59.9698 74.64C59.7832 76.04 59.5732 77.51 59.3398 79.05C59.1532 80.5433 58.9665 82.0367 58.7798 83.53C58.6865 84.3233 58.5932 85.07 58.4998 85.77C58.5932 84.4633 58.7098 83.0633 58.8498 81.57C59.0832 79.4233 59.3165 77.3 59.5498 75.2C59.8298 73.0533 60.0865 70.9533 60.3198 68.9C60.5532 66.8467 60.7865 64.9567 61.0198 63.23C61.0198 62.53 61.1832 61.7833 61.5098 60.99C61.8832 60.15 62.1398 59.2867 62.2798 58.4C62.5598 58.4933 62.7932 58.54 62.9798 58.54H63.4698C63.9365 58.54 64.2398 58.6567 64.3798 58.89C64.5198 59.0767 64.5898 59.3567 64.5898 59.73V60.08L65.2198 60.29C65.5932 59.59 66.0365 59.03 66.5498 58.61C67.0632 58.19 67.5765 57.98 68.0898 57.98C69.2098 57.98 69.7698 59.17 69.7698 61.55C69.7698 62.81 69.6298 64.1633 69.3498 65.61C69.1165 67.01 68.9998 68.3867 68.9998 69.74V70.65C68.9998 72.1433 68.8365 73.7767 68.5098 75.55C68.1832 77.2767 67.8098 79.05 67.3898 80.87C67.0165 82.6433 66.6665 84.37 66.3398 86.05C66.0132 87.73 65.8498 89.27 65.8498 90.67C65.8498 90.9967 65.8732 91.3467 65.9198 91.72C65.9665 92.0933 65.9898 92.4433 65.9898 92.77C65.9898 93.47 65.8498 93.9133 65.5698 94.1C65.3365 94.24 65.0332 94.31 64.6598 94.31C64.6598 93.7033 64.6365 92.9567 64.5898 92.07C64.5432 91.1833 64.5198 90.39 64.5198 89.69C64.4265 90.2033 64.3798 90.9033 64.3798 91.79C64.3798 92.6767 64.3332 93.5167 64.2398 94.31H63.1898V95.15C62.7698 95.8967 62.2098 96.27 61.5098 96.27C61.1832 96.27 60.8098 96.1767 60.3898 95.99C59.9698 95.8033 59.6432 95.5933 59.4098 95.36ZM73.8298 41.6C73.0365 42.0667 72.3132 42.6733 71.6598 43.42C71.0065 44.1667 70.3298 44.89 69.6298 45.59C70.0498 45.31 70.4232 45.0067 70.7498 44.68C71.0765 44.3533 71.4032 44.0267 71.7298 43.7C72.1032 43.3733 72.4765 43.0467 72.8498 42.72C73.2698 42.3933 73.7365 42.09 74.2498 41.81C74.3898 41.9967 74.5065 42.16 74.5998 42.3C74.7398 42.44 74.8098 42.58 74.8098 42.72L73.1998 44.33C73.1998 44.2367 73.1065 44.1433 72.9198 44.05C72.7798 43.9567 72.6632 43.91 72.5698 43.91C72.4298 44.3767 72.1965 44.75 71.8698 45.03C71.5432 45.31 71.2165 45.5667 70.8898 45.8C70.5632 46.0333 70.2365 46.29 69.9098 46.57C69.5832 46.85 69.3498 47.2233 69.2098 47.69V47.83C69.2098 47.8767 69.2798 47.9 69.4198 47.9L72.9198 44.61L71.5898 45.94C70.9365 46.5933 70.2365 47.27 69.4898 47.97C68.7898 48.6233 68.1132 49.2067 67.4598 49.72C66.8532 50.2333 66.4798 50.49 66.3398 50.49L66.2698 50.42C65.9432 50.3267 65.5932 50.28 65.2198 50.28C64.8932 50.28 64.5432 50.2567 64.1698 50.21C64.1698 49.8367 64.0998 49.44 63.9598 49.02C63.8665 48.6 63.8198 48.2733 63.8198 48.04C63.8198 47.8067 63.9365 47.69 64.1698 47.69C64.1698 47.55 64.0765 47.34 63.8898 47.06C63.7498 46.7333 63.5865 46.3833 63.3998 46.01C63.2132 45.59 63.0265 45.17 62.8398 44.75C62.6998 44.2833 62.6298 43.8167 62.6298 43.35C62.6298 42.8833 62.8165 42.44 63.1898 42.02C63.6098 41.5533 64.0765 41.1567 64.5898 40.83C65.1498 40.5033 65.6865 40.2233 66.1998 39.99C66.7132 39.7567 67.0865 39.5933 67.3198 39.5C67.5065 39.5 67.5765 39.4067 67.5298 39.22C67.4832 38.9867 67.5532 38.87 67.7398 38.87L68.9998 39.29C68.9065 39.5233 68.6032 39.92 68.0898 40.48C67.6232 40.9933 67.2732 41.3667 67.0398 41.6C67.3665 41.3667 67.7398 41.0167 68.1598 40.55C68.6265 40.0833 68.9765 39.7333 69.2098 39.5C69.4432 39.5933 69.6532 39.6867 69.8398 39.78C70.0265 39.8733 70.1665 39.92 70.2598 39.92L70.4698 39.71C70.7965 39.71 71.1465 39.78 71.5198 39.92C71.9398 40.06 72.3132 40.2233 72.6398 40.41C72.9665 40.5967 73.2465 40.8067 73.4798 41.04C73.7132 41.2733 73.8298 41.46 73.8298 41.6ZM58.3598 87.45C58.4065 86.9367 58.4532 86.4233 58.4998 85.91C58.4532 86.47 58.4065 86.9833 58.3598 87.45ZM219.72 100.26C217.947 100.867 216.594 101.193 215.66 101.24C214.727 101.333 213.91 101.403 213.21 101.45C210.597 101.45 208.24 100.96 206.14 99.98C204.04 99 202.244 97.67 200.75 95.99C199.257 94.31 198.09 92.35 197.25 90.11C196.457 87.8233 196.06 85.3967 196.06 82.83C196.06 81.3367 196.2 79.7967 196.48 78.21C196.76 76.5767 197.18 74.99 197.74 73.45C198.3 71.8633 199.024 70.3933 199.91 69.04C200.75 67.6867 201.754 66.4733 202.92 65.4C201.707 66.38 200.68 67.5467 199.84 68.9C198.954 70.2533 198.207 71.7233 197.6 73.31C196.994 74.85 196.55 76.46 196.27 78.14C195.99 79.7733 195.85 81.36 195.85 82.9C195.85 84.86 196.154 86.96 196.76 89.2C197.414 91.3933 198.44 93.4467 199.84 95.36C201.24 97.2267 203.037 98.79 205.23 100.05C207.47 101.31 210.177 101.94 213.35 101.94C214.844 101.94 216.407 101.73 218.04 101.31C216.267 102.477 214.284 103.06 212.09 103.06C210.317 103.06 208.637 102.78 207.05 102.22C205.51 101.707 204.064 100.96 202.71 99.98C201.404 99.0467 200.214 97.9267 199.14 96.62C198.067 95.3133 197.157 93.9133 196.41 92.42L197.04 91.86C196.247 90.2733 195.664 88.6867 195.29 87.1C194.964 85.5133 194.8 83.9033 194.8 82.27C194.8 79.89 195.127 77.6033 195.78 75.41C196.48 73.2167 197.39 71.14 198.51 69.18L200.19 66.87C200.47 66.3567 200.867 65.8433 201.38 65.33C201.94 64.8167 202.547 64.3267 203.2 63.86C203.854 63.3467 204.53 62.9033 205.23 62.53C205.977 62.11 206.677 61.7367 207.33 61.41C209.01 60.57 210.69 59.8233 212.37 59.17C214.05 58.47 216.01 57.9567 218.25 57.63L217.97 57.42C213.677 57.84 210.037 58.89 207.05 60.57C204.064 62.2033 201.637 64.21 199.77 66.59C197.904 68.97 196.55 71.5833 195.71 74.43C194.87 77.23 194.45 79.9833 194.45 82.69C194.45 84.1367 194.567 85.6067 194.8 87.1C195.08 88.5467 195.477 89.9933 195.99 91.44C194.824 88.64 194.24 85.6767 194.24 82.55C194.24 79.47 194.754 76.4133 195.78 73.38C196.807 70.3467 198.417 67.5467 200.61 64.98C203.41 62.4133 206.467 60.4533 209.78 59.1C213.094 57.7 216.29 57 219.37 57C220.35 57 221.354 57.1633 222.38 57.49C223.407 57.8167 224.34 58.33 225.18 59.03C226.02 59.6833 226.697 60.5467 227.21 61.62C227.77 62.6933 228.05 64 228.05 65.54C228.05 66.8 227.747 68.34 227.14 70.16C226.534 71.98 225.624 73.7533 224.41 75.48C223.244 77.16 221.774 78.6067 220 79.82C218.227 80.9867 216.174 81.57 213.84 81.57H211.53C209.804 81.1967 208.217 80.7767 206.77 80.31C205.37 79.7967 204.04 79.4 202.78 79.12C202.594 79.8667 202.477 80.59 202.43 81.29C202.43 81.9433 202.43 82.5967 202.43 83.25C202.43 84.6033 202.57 85.9333 202.85 87.24C203.177 88.5 203.667 89.6667 204.32 90.74C204.974 91.8133 205.79 92.7233 206.77 93.47C207.797 94.17 209.034 94.6133 210.48 94.8C211.367 94.9867 212.137 95.1033 212.79 95.15C213.444 95.15 213.98 95.1733 214.4 95.22C214.867 95.22 215.194 95.29 215.38 95.43C215.614 95.5233 215.73 95.7333 215.73 96.06C215.264 96.2 214.774 96.2933 214.26 96.34C213.794 96.3867 213.304 96.41 212.79 96.41C211.157 96.41 209.687 96.1533 208.38 95.64C207.074 95.08 205.954 94.45 205.02 93.75C206.094 94.8233 207.377 95.5933 208.87 96.06C210.364 96.48 211.834 96.69 213.28 96.69C214.074 96.69 214.89 96.62 215.73 96.48C215.637 96.76 215.59 96.9233 215.59 96.97C215.59 97.25 215.707 97.4367 215.94 97.53C216.127 97.4833 216.454 97.3667 216.92 97.18C217.387 96.9467 217.854 96.7367 218.32 96.55C218.834 96.3167 219.324 96.13 219.79 95.99C220.257 95.8033 220.584 95.71 220.77 95.71C221.004 95.71 221.214 95.7567 221.4 95.85C221.587 95.8967 221.68 96.1533 221.68 96.62C221.68 97.0867 221.517 97.6467 221.19 98.3C220.864 98.9533 220.374 99.6067 219.72 100.26ZM210.06 72.54L211.6 72.82C212.114 72.9133 212.58 72.96 213 72.96C213.467 72.96 214.004 72.82 214.61 72.54C215.264 72.2133 215.894 71.77 216.5 71.21C217.154 70.65 217.714 69.95 218.18 69.11C218.694 68.27 219.067 67.3133 219.3 66.24L219.44 65.82C218.787 65.82 217.807 65.9833 216.5 66.31C215.194 66.6367 213.84 67.08 212.44 67.64C211.04 68.1533 209.734 68.7833 208.52 69.53C207.307 70.23 206.467 71 206 71.84C206.7 71.98 207.377 72.12 208.03 72.26C208.73 72.3533 209.407 72.4467 210.06 72.54ZM206.84 77.72C206.934 77.6267 206.98 77.4867 206.98 77.3C207.027 77.1133 207.05 76.9733 207.05 76.88L203.76 75.69L203.41 76.67L206.84 77.72ZM204.88 93.61C204.554 93.2367 204.227 92.8633 203.9 92.49C203.62 92.1633 203.387 91.8367 203.2 91.51C203.62 92.3033 204.18 93.0033 204.88 93.61ZM363.384 98.09C363.244 98.4633 363.174 98.7433 363.174 98.93C363.174 99.07 363.221 99.28 363.314 99.56L354.984 98.23V97.95C354.658 97.95 354.494 97.67 354.494 97.11C354.494 96.7367 354.541 96.3633 354.634 95.99C354.728 95.6167 354.798 95.3133 354.844 95.08C355.218 92.84 355.498 90.7167 355.684 88.71C355.918 86.7033 356.104 84.58 356.244 82.34C356.244 77.9533 356.128 73.9867 355.894 70.44C355.708 66.8467 355.614 63.3233 355.614 59.87C355.614 56.93 355.754 54.2933 356.034 51.96C356.314 49.6267 356.454 47.2 356.454 44.68C356.454 42.9067 356.384 41.11 356.244 39.29L357.854 39.01C357.994 39.01 358.134 39.1033 358.274 39.29C358.414 39.43 358.531 39.7567 358.624 40.27C358.718 40.7367 358.788 41.4133 358.834 42.3C358.928 43.14 358.974 44.2367 358.974 45.59H359.814C359.908 42.4167 360.118 39.8967 360.444 38.03C360.818 36.1633 361.261 35.23 361.774 35.23C362.241 35.23 362.638 35.7433 362.964 36.77C363.291 37.75 363.548 39.08 363.734 40.76C363.968 42.44 364.131 44.3533 364.224 46.5C364.364 48.6467 364.434 50.8633 364.434 53.15V61.97C365.368 60.9433 366.534 60.01 367.934 59.17C369.381 58.33 370.968 57.91 372.694 57.91C375.214 57.91 377.338 58.54 379.064 59.8C380.838 61.0133 382.308 62.53 383.474 64.35C384.641 66.1233 385.528 68.0367 386.134 70.09C386.788 72.0967 387.254 73.87 387.534 75.41C387.768 76.3433 387.978 77.3933 388.164 78.56C388.398 79.7267 388.584 80.9167 388.724 82.13C388.864 83.3433 388.958 84.5567 389.004 85.77C389.098 86.9833 389.144 88.1033 389.144 89.13C389.144 89.27 389.121 89.6667 389.074 90.32C389.074 90.9267 389.028 91.58 388.934 92.28C388.841 92.98 388.701 93.61 388.514 94.17C388.328 94.73 388.071 95.01 387.744 95.01C387.651 95.01 387.581 94.9867 387.534 94.94C387.628 93.8667 387.698 92.8167 387.744 91.79C387.791 90.7633 387.814 89.7133 387.814 88.64C387.814 86.1667 387.651 83.7167 387.324 81.29C387.044 79.05 386.624 76.7867 386.064 74.5C386.531 76.5533 386.881 78.5833 387.114 80.59C387.394 82.7367 387.534 84.8833 387.534 87.03C387.534 89.5967 387.394 92.0933 387.114 94.52C386.648 94.7067 386.298 95.15 386.064 95.85C385.878 96.55 385.691 97.2967 385.504 98.09C385.318 98.8833 385.061 99.5833 384.734 100.19C384.454 100.843 383.988 101.17 383.334 101.17C383.101 101.17 382.891 101.007 382.704 100.68C382.564 100.4 382.424 100.027 382.284 99.56C382.144 99.14 382.028 98.6733 381.934 98.16C381.888 97.6 381.864 97.0867 381.864 96.62C381.864 96.2933 381.911 96.0133 382.004 95.78C382.098 95.5467 382.191 95.2667 382.284 94.94C382.471 93.82 382.588 92.7 382.634 91.58C382.728 90.4133 382.774 89.2233 382.774 88.01C382.774 86.61 382.704 85.0467 382.564 83.32C382.424 81.5933 382.191 79.8433 381.864 78.07C381.538 76.2967 381.118 74.5933 380.604 72.96C380.091 71.28 379.438 69.81 378.644 68.55C377.898 67.2433 377.011 66.2167 375.984 65.47C374.958 64.6767 373.791 64.28 372.484 64.28C371.458 64.28 370.524 64.7233 369.684 65.61C368.891 66.45 368.168 67.5467 367.514 68.9C366.908 70.2067 366.371 71.6767 365.904 73.31C365.484 74.8967 365.111 76.4133 364.784 77.86V78.21C365.064 76.7633 365.414 75.2933 365.834 73.8C366.301 72.3067 366.861 70.93 367.514 69.67C368.214 68.3633 369.031 67.2433 369.964 66.31C370.898 65.3767 371.994 64.77 373.254 64.49C374.374 64.49 375.378 64.8867 376.264 65.68C377.151 66.4733 377.921 67.5233 378.574 68.83C379.274 70.09 379.858 71.5367 380.324 73.17C380.838 74.7567 381.234 76.3433 381.514 77.93C381.841 79.5167 382.074 81.0333 382.214 82.48C382.354 83.88 382.424 85.0467 382.424 85.98C382.424 87.4733 382.354 88.9667 382.214 90.46C382.074 91.9067 381.888 93.33 381.654 94.73C381.421 92.7233 381.258 90.6233 381.164 88.43C381.071 86.2367 380.908 84.0667 380.674 81.92C380.441 79.7733 380.091 77.6733 379.624 75.62C379.158 73.52 378.434 71.56 377.454 69.74L378.084 69.53C377.664 68.7367 377.268 68.1533 376.894 67.78C376.568 67.4067 376.241 67.1267 375.914 66.94C375.634 66.7533 375.308 66.59 374.934 66.45C374.561 66.2633 374.141 65.96 373.674 65.54H372.624C371.038 65.54 369.614 67.0333 368.354 70.02C367.094 73.0067 365.928 77.2067 364.854 82.62L364.644 87.03C364.924 85.1167 365.274 82.9467 365.694 80.52C366.161 78.0467 366.698 75.7367 367.304 73.59C367.958 71.3967 368.704 69.5767 369.544 68.13C370.431 66.6367 371.458 65.89 372.624 65.89C373.138 65.89 373.744 66.0533 374.444 66.38C375.144 66.7067 375.868 67.36 376.614 68.34C375.961 67.5933 375.308 67.0333 374.654 66.66C374.001 66.2867 373.418 66.1 372.904 66.1L372.414 66.17C371.481 66.17 370.664 66.7533 369.964 67.92C369.264 69.0867 368.611 70.6033 368.004 72.47C367.444 74.29 366.954 76.39 366.534 78.77C366.114 81.1033 365.718 83.46 365.344 85.84C364.971 88.1733 364.621 90.4367 364.294 92.63C364.014 94.7767 363.711 96.5967 363.384 98.09ZM361.984 99.21C362.264 99.1167 362.428 98.9767 362.474 98.79C362.568 98.6033 362.661 98.51 362.754 98.51L363.244 94.8L362.124 98.3L361.914 98.72C361.121 98.6733 360.351 98.58 359.604 98.44C358.951 98.3467 358.251 98.2533 357.504 98.16C356.804 98.02 356.174 97.9033 355.614 97.81C355.474 97.39 355.404 97.0867 355.404 96.9C355.404 96.8533 355.404 96.8067 355.404 96.76C355.451 96.7133 355.474 96.6667 355.474 96.62L354.984 96.55C355.078 97.2967 355.148 97.74 355.194 97.88C355.288 97.9733 355.404 98.0667 355.544 98.16L361.984 99.21ZM378.924 61.55C377.991 60.8967 376.988 60.3833 375.914 60.01C374.841 59.59 373.721 59.38 372.554 59.38C370.688 59.38 369.078 59.8933 367.724 60.92C366.371 61.9 365.274 62.9967 364.434 64.21V64.42C364.854 63.8133 365.321 63.23 365.834 62.67C366.394 62.0633 367.001 61.55 367.654 61.13C368.308 60.6633 369.054 60.29 369.894 60.01C370.734 59.73 371.691 59.59 372.764 59.59C374.864 59.59 376.731 60.1967 378.364 61.41C380.044 62.6233 381.491 64.1167 382.704 65.89C382.191 65.0967 381.631 64.3267 381.024 63.58C380.464 62.8333 379.764 62.1567 378.924 61.55ZM385.924 74.01L386.064 74.5L385.924 74.01Z" fill="#F4B400"/>
<path d="M110.032 99.21C109.705 97.9967 109.215 96.7367 108.562 95.43C107.955 94.1233 107.255 92.8167 106.462 91.51C107.209 92.8167 107.815 94.1467 108.282 95.5C108.795 96.8533 109.145 98.16 109.332 99.42C108.819 98.86 108.329 98.2067 107.862 97.46C107.442 96.6667 106.999 95.85 106.532 95.01C106.065 94.1233 105.575 93.2367 105.062 92.35C104.595 91.4633 104.082 90.6233 103.522 89.83C103.802 89.55 104.012 89.41 104.152 89.41C102.239 87.17 100.162 85.0933 97.9219 83.18C95.6819 81.2667 93.0685 79.9367 90.0819 79.19V80.38C91.4352 80.66 92.8819 81.15 94.4219 81.85C93.0685 81.29 91.6685 80.9167 90.2219 80.73C90.1285 82.0833 90.0352 83.4133 89.9419 84.72C89.8485 85.98 89.7085 87.2167 89.5219 88.43C89.5219 89.1767 89.5452 90.04 89.5919 91.02C89.6385 91.9533 89.6619 92.8867 89.6619 93.82C89.6619 96.4333 89.3119 97.74 88.6119 97.74C88.5185 97.74 88.3785 97.6933 88.1919 97.6C88.2385 96.8533 88.2619 96.13 88.2619 95.43V88.64C88.1685 90.0867 88.0985 91.5567 88.0519 93.05C88.0052 94.4967 87.8885 95.92 87.7019 97.32C87.1885 97.6467 86.8385 98.02 86.6519 98.44C86.5119 98.8133 86.3719 99.1633 86.2319 99.49C86.1385 99.8167 85.9752 100.073 85.7419 100.26C85.5552 100.493 85.1819 100.61 84.6219 100.61C84.1085 100.61 83.6652 100.377 83.2919 99.91C82.9652 99.49 82.6385 98.9533 82.3119 98.3L82.5219 97.6C82.7552 96.2467 82.8952 94.87 82.9419 93.47C83.0352 92.0233 83.0819 90.5767 83.0819 89.13C83.0819 86.47 83.1285 83.9267 83.2219 81.5C83.3619 79.0733 83.5252 76.6 83.7119 74.08C83.7119 72.9133 83.6885 71.77 83.6419 70.65C83.6419 69.53 83.6419 68.4333 83.6419 67.36L82.9419 82.41C82.7085 84.9767 82.5919 87.59 82.5919 90.25C82.5919 92.8633 82.3585 95.22 81.8919 97.32C81.6585 96.8533 81.4719 96.3867 81.3319 95.92C81.2385 95.4067 81.1919 94.8 81.1919 94.1C81.1919 93.2133 81.1685 92.42 81.1219 91.72C81.1219 90.9733 81.1219 90.2033 81.1219 89.41C81.1219 88.85 81.1219 88.2433 81.1219 87.59C81.1685 86.9367 81.2152 86.2133 81.2619 85.42L82.3119 84.02C82.2652 83.3667 82.2419 82.7367 82.2419 82.13V80.17C82.2419 77.7433 82.2885 75.34 82.3819 72.96C82.4752 70.5333 82.5219 68.0833 82.5219 65.61V63.72C82.5219 63.16 82.4985 62.6233 82.4519 62.11C82.4052 61.5967 82.3585 61.06 82.3119 60.5C82.2652 59.8933 82.1952 59.24 82.1019 58.54H81.8919C81.8919 59.3333 81.8919 60.0567 81.8919 60.71C81.9385 61.3633 81.9619 62.0167 81.9619 62.67C82.0085 63.2767 82.0319 63.9067 82.0319 64.56V66.66C82.0319 72.3533 81.8219 78.07 81.4019 83.81C81.4952 81.7567 81.5652 79.75 81.6119 77.79C81.6585 75.7833 81.6819 73.7767 81.6819 71.77C81.6819 69.67 81.6585 67.64 81.6119 65.68C81.5652 63.72 81.5185 61.7833 81.4719 59.87C81.4719 57.91 81.4485 55.9267 81.4019 53.92C81.3552 51.9133 81.3319 49.8133 81.3319 47.62C81.3319 46.4067 81.3785 45.31 81.4719 44.33C81.5652 43.35 81.6819 42.3933 81.8219 41.46C82.0085 40.48 82.1719 39.4767 82.3119 38.45C82.4985 37.4233 82.6619 36.2333 82.8019 34.88L84.3419 34.95C84.6219 34.95 84.8552 35.0667 85.0419 35.3C85.2752 35.4867 85.3919 35.93 85.3919 36.63C85.3919 36.8633 85.3685 37.0967 85.3219 37.33C85.3219 37.5633 85.2985 37.8433 85.2519 38.17H85.9519C86.3252 36.77 86.7919 35.6967 87.3519 34.95C87.9585 34.1567 88.5185 33.76 89.0319 33.76C89.6852 33.76 90.1285 34.3667 90.3619 35.58C90.6419 36.7467 90.7819 38.45 90.7819 40.69C90.7819 41.5767 90.7585 42.37 90.7119 43.07C90.7119 43.77 90.6885 44.47 90.6419 45.17C90.5952 45.87 90.5485 46.6167 90.5019 47.41C90.5019 48.1567 90.5019 49.02 90.5019 50C90.5019 51.2133 90.5252 52.3567 90.5719 53.43C90.6185 54.5033 90.6652 55.5533 90.7119 56.58C90.8052 57.6067 90.8752 58.6567 90.9219 59.73C90.9685 60.7567 90.9919 61.8533 90.9919 63.02V73.24C92.4385 72.6333 93.9552 71.6533 95.5419 70.3C97.1285 68.9467 98.6219 67.4767 100.022 65.89C101.422 64.3033 102.659 62.7167 103.732 61.13C104.805 59.5433 105.552 58.2133 105.972 57.14C106.112 57.3267 106.299 57.4433 106.532 57.49L107.232 57.63C107.465 57.6767 107.675 57.77 107.862 57.91C108.049 58.0033 108.142 58.19 108.142 58.47C108.142 58.7033 108.072 59.0067 107.932 59.38C107.839 59.7067 107.629 60.1267 107.302 60.64L108.002 61.13C108.749 60.1033 109.495 59.2867 110.242 58.68C110.989 58.0267 111.619 57.7 112.132 57.7C112.832 57.7 113.182 58.2833 113.182 59.45C113.182 60.99 112.809 62.53 112.062 64.07C111.362 65.5633 110.452 66.9867 109.332 68.34C108.212 69.6467 106.929 70.8833 105.482 72.05C104.082 73.2167 102.682 74.22 101.282 75.06C103.802 76.7867 105.995 78.84 107.862 81.22C109.729 83.5533 111.199 85.9567 112.272 88.43C112.552 88.8967 112.902 89.4567 113.322 90.11C113.742 90.7633 114.162 91.44 114.582 92.14C115.002 92.84 115.352 93.54 115.632 94.24C115.959 94.8933 116.122 95.4533 116.122 95.92C116.122 96.5267 116.029 96.8767 115.842 96.97C115.655 97.0633 115.445 97.11 115.212 97.11C114.559 95.2433 113.765 93.54 112.832 92C111.992 90.5533 111.152 89.13 110.312 87.73C111.105 89.1767 111.899 90.6 112.692 92C113.532 93.54 114.209 95.2433 114.722 97.11C114.489 97.11 114.279 97.1333 114.092 97.18C113.905 97.2267 113.742 97.3667 113.602 97.6C113.649 97.8333 113.695 98.0433 113.742 98.23C113.835 98.65 113.952 98.9767 114.092 99.21C113.905 99.9567 113.672 100.447 113.392 100.68C113.112 100.96 112.809 101.1 112.482 101.1C112.109 101.1 111.642 100.937 111.082 100.61C110.569 100.33 110.219 100.097 110.032 99.91V99.21ZM98.9019 82.55C100.535 83.9033 102.052 85.42 103.452 87.1L102.822 86.12C101.795 84.4867 100.442 83.11 98.7619 81.99C97.1752 80.9167 95.5652 80.1233 93.9319 79.61C95.6585 80.2633 97.3152 81.2433 98.9019 82.55ZM107.372 83.11C106.579 81.6633 105.599 80.4733 104.432 79.54C103.359 78.6533 102.239 77.7667 101.072 76.88C102.099 77.7667 103.149 78.7233 104.222 79.75C105.342 80.8233 106.392 81.9433 107.372 83.11ZM102.052 88.01C101.165 86.9833 100.092 85.9333 98.8319 84.86C97.5719 83.74 96.3819 82.8767 95.2619 82.27C96.4285 82.83 97.5952 83.5767 98.7619 84.51C99.9752 85.3967 101.072 86.5633 102.052 88.01ZM141.743 94.31C141.743 94.03 141.906 93.7733 142.233 93.54C142.56 93.3067 142.933 93.0967 143.353 92.91C143.82 92.7233 144.263 92.56 144.683 92.42C145.15 92.28 145.5 92.1633 145.733 92.07C147.973 92.35 150.213 92.5833 152.453 92.77C154.693 92.9567 156.933 93.05 159.173 93.05C160.013 93.05 161.18 93.05 162.673 93.05C164.166 93.0033 165.8 92.91 167.573 92.77C169.346 92.63 171.143 92.42 172.963 92.14C174.783 91.8133 176.44 91.37 177.933 90.81C179.426 90.25 180.64 89.55 181.573 88.71C182.506 87.87 182.973 86.82 182.973 85.56C182.973 84.5333 182.74 83.6233 182.273 82.83C181.853 81.99 181.27 81.2667 180.523 80.66C179.823 80.0067 179.03 79.47 178.143 79.05C177.816 78.8633 177.466 78.7 177.093 78.56C177.466 78.7467 177.816 78.9333 178.143 79.12C178.983 79.5867 179.73 80.17 180.383 80.87C181.083 81.5233 181.643 82.27 182.063 83.11C182.483 83.9033 182.693 84.8133 182.693 85.84C182.693 86.96 182.273 87.9167 181.433 88.71C180.64 89.4567 179.59 90.0867 178.283 90.6C177.023 91.1133 175.6 91.51 174.013 91.79C172.473 92.07 170.933 92.28 169.393 92.42C167.853 92.56 166.43 92.6533 165.123 92.7C163.816 92.7 162.79 92.7 162.043 92.7C159.663 92.7 157.26 92.63 154.833 92.49C152.453 92.3033 150.073 92.0933 147.693 91.86C148.533 91.6267 149.373 91.4633 150.213 91.37C151.1 91.23 151.986 91.16 152.873 91.16C154.366 91.16 155.836 91.1833 157.283 91.23C158.73 91.23 160.176 91.23 161.623 91.23C163.35 91.23 165.053 91.2067 166.733 91.16C168.413 91.0667 170.14 90.88 171.913 90.6L172.123 91.44C172.823 91.3 173.71 91.09 174.783 90.81C175.856 90.4833 176.883 90.0867 177.863 89.62C178.89 89.1533 179.753 88.57 180.453 87.87C181.2 87.17 181.573 86.3533 181.573 85.42C181.573 84.0667 181.083 82.8767 180.103 81.85C179.123 80.8233 177.863 79.9133 176.323 79.12C174.83 78.28 173.126 77.5567 171.213 76.95C169.3 76.3433 167.41 75.8067 165.543 75.34C163.723 74.8733 161.996 74.4533 160.363 74.08C158.73 73.7067 157.423 73.3567 156.443 73.03V73.45C157.423 73.8233 158.706 74.22 160.293 74.64C161.88 75.0133 163.583 75.4333 165.403 75.9C167.27 76.3667 169.136 76.9033 171.003 77.51C172.87 78.07 174.55 78.7467 176.043 79.54C177.583 80.3333 178.82 81.2433 179.753 82.27C180.733 83.2967 181.223 84.4633 181.223 85.77C181.223 86.5167 180.873 87.17 180.173 87.73C179.473 88.29 178.633 88.78 177.653 89.2C176.72 89.5733 175.763 89.8767 174.783 90.11C173.803 90.3433 173.056 90.5067 172.543 90.6C173.15 90.46 173.92 90.2733 174.853 90.04C175.833 89.76 176.766 89.41 177.653 88.99C178.586 88.57 179.38 88.08 180.033 87.52C180.686 86.9133 181.013 86.2133 181.013 85.42C181.013 84.1133 180.5 83.0167 179.473 82.13C178.446 81.2433 177.093 80.45 175.413 79.75C173.733 79.05 171.82 78.42 169.673 77.86C167.526 77.3 165.31 76.6933 163.023 76.04C160.783 75.3867 158.59 74.64 156.443 73.8C154.296 72.96 152.383 71.91 150.703 70.65C149.023 69.39 147.67 67.8967 146.643 66.17C145.616 64.4433 145.103 62.3667 145.103 59.94C145.103 57.56 145.663 55.5533 146.783 53.92C147.95 52.24 149.42 50.8867 151.193 49.86C153.013 48.7867 154.996 48.0167 157.143 47.55C159.29 47.0833 161.366 46.85 163.373 46.85C166.313 46.85 169.183 47.27 171.983 48.11C174.83 48.95 177.513 50.1167 180.033 51.61C179.753 51.7033 179.59 51.8433 179.543 52.03C179.496 52.17 179.45 52.3333 179.403 52.52C179.403 52.7067 179.356 52.87 179.263 53.01C179.216 53.15 179.076 53.22 178.843 53.22C178.656 53.22 178.283 53.15 177.723 53.01C177.21 52.8233 176.65 52.6367 176.043 52.45C175.436 52.2167 174.853 52.0067 174.293 51.82C173.733 51.6333 173.36 51.4933 173.173 51.4L172.963 52.03C173.383 52.2167 173.92 52.4967 174.573 52.87C175.273 53.1967 175.926 53.6167 176.533 54.13C177.186 54.5967 177.723 55.11 178.143 55.67C178.61 56.23 178.843 56.79 178.843 57.35C178.843 57.9567 178.563 58.26 178.003 58.26C177.303 58.26 176.463 58.0733 175.483 57.7C174.55 57.3267 173.5 56.93 172.333 56.51C171.166 56.0433 169.906 55.6233 168.553 55.25C167.246 54.8767 165.916 54.69 164.563 54.69C163.676 54.69 162.626 54.7833 161.413 54.97C160.246 55.11 159.103 55.4133 157.983 55.88C156.91 56.3 156 56.9067 155.253 57.7C154.506 58.4467 154.133 59.4033 154.133 60.57C154.133 61.6433 154.623 62.5533 155.603 63.3C156.63 64.0467 157.96 64.7233 159.593 65.33C161.273 65.9367 163.163 66.52 165.263 67.08C167.363 67.64 169.51 68.27 171.703 68.97C173.943 69.6233 176.113 70.3933 178.213 71.28C180.313 72.1667 182.18 73.24 183.813 74.5C185.493 75.76 186.823 77.2533 187.803 78.98C188.83 80.7067 189.343 82.7367 189.343 85.07C189.343 87.3567 188.876 89.2933 187.943 90.88C187.01 92.4667 185.773 93.7967 184.233 94.87C182.693 95.8967 180.943 96.7133 178.983 97.32C177.023 97.88 174.993 98.3233 172.893 98.65C170.84 98.93 168.786 99.0933 166.733 99.14C164.726 99.2333 162.906 99.28 161.273 99.28H154.273C153.853 99.28 153.27 99.2567 152.523 99.21C151.823 99.21 151.123 99.1633 150.423 99.07C149.723 99.0233 149.116 98.9067 148.603 98.72C148.09 98.5333 147.833 98.3 147.833 98.02L147.903 97.67C149.816 97.7633 151.706 97.8567 153.573 97.95C155.44 97.9967 157.33 98.02 159.243 98.02C161.016 98.02 162.79 98.02 164.563 98.02C166.15 97.9733 167.736 97.88 169.323 97.74C168.53 97.7867 167.736 97.8333 166.943 97.88C165.963 97.88 165.006 97.88 164.073 97.88H161.273C156.886 97.88 152.57 97.74 148.323 97.46C148.416 97.0867 148.463 96.83 148.463 96.69C148.463 96.5033 148.416 96.3167 148.323 96.13C148.23 96.13 148.09 96.1533 147.903 96.2C147.763 96.2 147.576 96.2 147.343 96.2C146.83 96.2 146.246 96.1767 145.593 96.13C144.986 96.0833 144.38 95.99 143.773 95.85C143.213 95.71 142.723 95.5233 142.303 95.29C141.93 95.01 141.743 94.6833 141.743 94.31ZM184.723 92.49C183.93 93.19 183.09 93.7733 182.203 94.24C181.41 94.66 180.593 95.0567 179.753 95.43C180.593 95.15 181.41 94.8233 182.203 94.45C183.09 94.0767 183.93 93.4233 184.723 92.49ZM294.055 99.77C293.589 99.8633 293.075 99.91 292.515 99.91H290.485C289.272 99.91 288.409 100.05 287.895 100.33C287.429 100.61 287.149 100.75 287.055 100.75L286.775 99.49V98.23L286.425 91.65C286.332 90.39 286.075 89.0367 285.655 87.59C285.235 86.1433 284.909 84.6733 284.675 83.18C284.535 82.2 284.419 81.2667 284.325 80.38L284.045 77.65C283.952 76.7167 283.835 75.76 283.695 74.78C283.602 73.8 283.439 72.75 283.205 71.63C283.205 71.35 283.205 71.07 283.205 70.79C283.252 70.51 283.275 70.23 283.275 69.95C283.275 68.5033 283.159 67.08 282.925 65.68C282.692 64.28 282.365 62.9033 281.945 61.55C282.272 61.41 282.575 61.2933 282.855 61.2C283.135 61.06 283.392 60.99 283.625 60.99C283.859 60.99 284.115 61.27 284.395 61.83C284.675 62.3433 284.979 63.44 285.305 65.12C285.399 65.12 285.539 65.0967 285.725 65.05C285.912 64.9567 286.052 64.91 286.145 64.91C286.099 64.1167 285.982 63.2767 285.795 62.39C285.609 61.4567 285.422 60.57 285.235 59.73C285.049 58.89 284.862 58.1433 284.675 57.49C284.535 56.79 284.465 56.23 284.465 55.81C284.465 55.7167 284.465 55.6 284.465 55.46C284.512 55.32 284.629 55.25 284.815 55.25C285.049 55.25 285.352 55.5067 285.725 56.02C286.099 56.5333 286.495 57.1867 286.915 57.98C287.335 58.7733 287.732 59.6367 288.105 60.57C288.525 61.4567 288.899 62.2967 289.225 63.09C290.485 60.71 291.909 58.9133 293.495 57.7C295.129 56.44 297.252 55.81 299.865 55.81C301.779 55.81 303.342 56.0433 304.555 56.51C305.769 56.93 306.702 57.42 307.355 57.98C308.055 58.4933 308.522 58.9833 308.755 59.45L309.175 60.15C309.175 60.43 309.035 60.6167 308.755 60.71C307.542 59.5433 306.165 58.6567 304.625 58.05C303.085 57.4433 301.499 57.14 299.865 57.14C298.279 57.14 297.089 57.35 296.295 57.77C295.549 58.1433 294.755 58.61 293.915 59.17C294.802 58.61 295.619 58.1667 296.365 57.84C297.159 57.5133 298.302 57.35 299.795 57.35C301.429 57.35 302.992 57.6767 304.485 58.33C305.979 58.9367 307.262 59.73 308.335 60.71C308.102 60.8033 307.892 60.92 307.705 61.06C307.565 61.1533 307.495 61.3167 307.495 61.55C307.729 61.55 307.985 61.7133 308.265 62.04C308.545 62.32 308.802 62.67 309.035 63.09C309.269 63.51 309.455 63.9533 309.595 64.42C309.782 64.84 309.875 65.19 309.875 65.47C309.875 66.2633 309.572 66.66 308.965 66.66C308.499 66.66 307.939 66.4967 307.285 66.17C307.145 66.1233 306.842 65.8667 306.375 65.4C305.955 64.9333 305.419 64.4667 304.765 64C304.112 63.4867 303.365 63.02 302.525 62.6C301.685 62.18 300.752 61.97 299.725 61.97C298.885 61.97 298.139 62.1567 297.485 62.53C296.879 62.8567 296.319 63.3233 295.805 63.93C295.292 64.49 294.825 65.1433 294.405 65.89L293.495 67.57C294.195 66.31 294.965 65.1667 295.805 64.14C296.739 62.9267 297.905 62.32 299.305 62.32C300.519 62.32 301.639 62.6 302.665 63.16C303.692 63.6733 304.532 64.3267 305.185 65.12C304.392 64.7933 303.459 64.4667 302.385 64.14C301.312 63.8133 300.285 63.65 299.305 63.65C298.792 63.65 298.349 63.7667 297.975 64C297.602 64.2333 297.275 64.5367 296.995 64.91C296.762 65.2367 296.529 65.61 296.295 66.03C296.109 66.45 295.899 66.8467 295.665 67.22L294.755 67.36C293.962 68.7133 293.309 70.3 292.795 72.12C292.329 73.8933 292.095 75.76 292.095 77.72C292.095 78.8867 292.142 79.9367 292.235 80.87C292.375 81.8033 292.562 82.76 292.795 83.74L293.635 85.91L293.495 83.88C293.402 82.2933 293.309 80.8933 293.215 79.68C293.122 78.42 293.075 77.0433 293.075 75.55C293.169 74.1967 293.355 72.9133 293.635 71.7C293.869 70.6733 294.219 69.7167 294.685 68.83C294.125 69.95 293.752 71.2333 293.565 72.68C293.332 74.2667 293.215 75.9467 293.215 77.72C293.215 79.12 293.285 80.45 293.425 81.71C293.565 82.97 293.729 84.23 293.915 85.49C294.149 86.75 294.382 88.0567 294.615 89.41C294.849 90.7167 295.035 92.1633 295.175 93.75L295.385 95.08L295.805 99.07L294.055 99.77ZM294.895 68.48L294.685 68.83L294.895 68.48Z" fill="#DB4437"/>
<path d="M123.531 95.36C123.718 94.0533 123.881 92.5367 124.021 90.81C124.208 89.0367 124.371 87.2633 124.511 85.49C124.651 83.7167 124.791 81.99 124.931 80.31C125.071 78.5833 125.211 77.09 125.351 75.83C125.118 77.09 124.908 78.5367 124.721 80.17C124.534 81.8033 124.348 83.4833 124.161 85.21C123.974 86.9367 123.788 88.6633 123.601 90.39C123.414 92.07 123.251 93.5867 123.111 94.94C122.411 94.4733 122.061 93.8433 122.061 93.05C122.061 92.1167 122.084 91.3467 122.131 90.74C122.178 90.0867 122.248 89.34 122.341 88.5L123.111 87.8C123.064 87.5667 123.041 87.3567 123.041 87.17V86.47C123.041 85.3967 123.158 84.1833 123.391 82.83C123.624 81.43 123.881 80.03 124.161 78.63C124.488 77.1833 124.768 75.8067 125.001 74.5C125.234 73.1467 125.351 71.98 125.351 71L124.511 70.79C124.418 71.91 124.278 73.1933 124.091 74.64C123.904 76.04 123.694 77.51 123.461 79.05C123.274 80.5433 123.088 82.0367 122.901 83.53C122.808 84.3233 122.714 85.07 122.621 85.77C122.714 84.4633 122.831 83.0633 122.971 81.57C123.204 79.4233 123.438 77.3 123.671 75.2C123.951 73.0533 124.208 70.9533 124.441 68.9C124.674 66.8467 124.908 64.9567 125.141 63.23C125.141 62.53 125.304 61.7833 125.631 60.99C126.004 60.15 126.261 59.2867 126.401 58.4C126.681 58.4933 126.914 58.54 127.101 58.54H127.591C128.058 58.54 128.361 58.6567 128.501 58.89C128.641 59.0767 128.711 59.3567 128.711 59.73V60.08L129.341 60.29C129.714 59.59 130.158 59.03 130.671 58.61C131.184 58.19 131.698 57.98 132.211 57.98C133.331 57.98 133.891 59.17 133.891 61.55C133.891 62.81 133.751 64.1633 133.471 65.61C133.238 67.01 133.121 68.3867 133.121 69.74V70.65C133.121 72.1433 132.958 73.7767 132.631 75.55C132.304 77.2767 131.931 79.05 131.511 80.87C131.138 82.6433 130.788 84.37 130.461 86.05C130.134 87.73 129.971 89.27 129.971 90.67C129.971 90.9967 129.994 91.3467 130.041 91.72C130.088 92.0933 130.111 92.4433 130.111 92.77C130.111 93.47 129.971 93.9133 129.691 94.1C129.458 94.24 129.154 94.31 128.781 94.31C128.781 93.7033 128.758 92.9567 128.711 92.07C128.664 91.1833 128.641 90.39 128.641 89.69C128.548 90.2033 128.501 90.9033 128.501 91.79C128.501 92.6767 128.454 93.5167 128.361 94.31H127.311V95.15C126.891 95.8967 126.331 96.27 125.631 96.27C125.304 96.27 124.931 96.1767 124.511 95.99C124.091 95.8033 123.764 95.5933 123.531 95.36ZM137.951 41.6C137.158 42.0667 136.434 42.6733 135.781 43.42C135.128 44.1667 134.451 44.89 133.751 45.59C134.171 45.31 134.544 45.0067 134.871 44.68C135.198 44.3533 135.524 44.0267 135.851 43.7C136.224 43.3733 136.598 43.0467 136.971 42.72C137.391 42.3933 137.858 42.09 138.371 41.81C138.511 41.9967 138.628 42.16 138.721 42.3C138.861 42.44 138.931 42.58 138.931 42.72L137.321 44.33C137.321 44.2367 137.228 44.1433 137.041 44.05C136.901 43.9567 136.784 43.91 136.691 43.91C136.551 44.3767 136.318 44.75 135.991 45.03C135.664 45.31 135.338 45.5667 135.011 45.8C134.684 46.0333 134.358 46.29 134.031 46.57C133.704 46.85 133.471 47.2233 133.331 47.69V47.83C133.331 47.8767 133.401 47.9 133.541 47.9L137.041 44.61L135.711 45.94C135.058 46.5933 134.358 47.27 133.611 47.97C132.911 48.6233 132.234 49.2067 131.581 49.72C130.974 50.2333 130.601 50.49 130.461 50.49L130.391 50.42C130.064 50.3267 129.714 50.28 129.341 50.28C129.014 50.28 128.664 50.2567 128.291 50.21C128.291 49.8367 128.221 49.44 128.081 49.02C127.988 48.6 127.941 48.2733 127.941 48.04C127.941 47.8067 128.058 47.69 128.291 47.69C128.291 47.55 128.198 47.34 128.011 47.06C127.871 46.7333 127.708 46.3833 127.521 46.01C127.334 45.59 127.148 45.17 126.961 44.75C126.821 44.2833 126.751 43.8167 126.751 43.35C126.751 42.8833 126.938 42.44 127.311 42.02C127.731 41.5533 128.198 41.1567 128.711 40.83C129.271 40.5033 129.808 40.2233 130.321 39.99C130.834 39.7567 131.208 39.5933 131.441 39.5C131.628 39.5 131.698 39.4067 131.651 39.22C131.604 38.9867 131.674 38.87 131.861 38.87L133.121 39.29C133.028 39.5233 132.724 39.92 132.211 40.48C131.744 40.9933 131.394 41.3667 131.161 41.6C131.488 41.3667 131.861 41.0167 132.281 40.55C132.748 40.0833 133.098 39.7333 133.331 39.5C133.564 39.5933 133.774 39.6867 133.961 39.78C134.148 39.8733 134.288 39.92 134.381 39.92L134.591 39.71C134.918 39.71 135.268 39.78 135.641 39.92C136.061 40.06 136.434 40.2233 136.761 40.41C137.088 40.5967 137.368 40.8067 137.601 41.04C137.834 41.2733 137.951 41.46 137.951 41.6ZM122.481 87.45C122.528 86.9367 122.574 86.4233 122.621 85.91C122.574 86.47 122.528 86.9833 122.481 87.45Z" fill="#0F9D58"/>
</g>
<g filter="url(#filter1_d)">
<path d="M422.992 39.9179C423.232 40.0004 423.39 40.2223 423.466 40.5836C423.563 40.885 423.581 41.1255 423.519 41.3051L423.12 42.1724L424.077 42.6025C424.603 42.0469 425.279 41.5428 426.105 41.0903C426.951 40.5779 427.794 40.466 428.632 40.7547C429.171 40.9403 429.528 41.2642 429.704 41.7266C429.939 42.2096 430.054 42.7516 430.048 43.3524C430.063 43.8933 429.978 44.4332 429.792 44.9722C429.666 45.5317 429.531 46.0211 429.387 46.4403C428.438 49.1949 427.381 51.8783 426.213 54.4906C425.046 57.1028 423.838 59.7347 422.59 62.3862C421.363 64.9778 420.166 67.5798 418.998 70.192C417.831 72.8043 416.773 75.4877 415.824 78.2423C415.598 78.901 415.501 79.571 415.534 80.2524C415.588 80.8738 415.502 81.5138 415.275 82.1726C415.13 82.5917 414.867 82.8695 414.485 83.006C414.184 83.1031 413.843 83.1198 413.464 83.056C413.513 82.1351 413.562 81.2143 413.611 80.2935C413.679 79.513 413.817 78.7232 414.025 77.9242C413.427 79.6608 413.08 81.3498 412.983 82.9912L411.423 82.8556L411.38 84.147C410.447 85.2995 409.352 85.6592 408.094 85.2262C407.316 84.9582 406.831 84.4226 406.638 83.6196C406.466 82.7566 406.436 81.7749 406.547 80.6745C406.718 79.5946 406.969 78.4755 407.301 77.3171C407.714 76.1194 408.085 75.0415 408.415 74.0834C409.136 71.9875 409.878 69.9318 410.639 67.9164C411.398 66.1013 412.097 64.2656 412.736 62.4092L410.92 66.8076C410.202 68.503 409.544 70.219 408.946 71.9556C408.307 73.8119 407.678 75.6384 407.06 77.4349C406.501 79.252 405.992 81.1196 405.532 83.0379C405.039 82.332 404.776 81.5383 404.745 80.6567C404.734 79.7152 404.823 78.7748 405.013 77.8353C405.202 76.8958 405.452 75.9769 405.761 75.0787L406.596 72.6534L407.615 72.9038C407.722 72.2039 407.849 71.5442 407.995 70.9247C408.162 70.2454 408.359 69.5764 408.586 68.9177C409.246 67.0014 410.055 65.1367 411.014 63.3236C411.994 61.4505 412.814 59.5559 413.474 57.6396C413.639 57.1606 413.764 56.7011 413.848 56.2613C413.992 55.8422 414.117 55.3827 414.222 54.883L413.683 54.6975C412.84 56.9524 411.927 59.1165 410.945 61.1898C410.126 62.9843 409.357 64.8294 408.637 66.725C409.957 62.8925 411.396 59.1013 412.956 55.3512C414.597 51.3617 416.289 47.3226 418.032 43.2339C419.306 42.0647 420.21 40.7017 420.746 39.1447C420.905 39.2665 421.135 39.3789 421.434 39.482C421.734 39.5851 422.003 39.6779 422.243 39.7603C422.503 39.7829 422.752 39.8355 422.992 39.9179ZM417.35 97.1545L416.951 98.0218C415.956 97.4111 414.91 96.85 413.813 96.3385C412.797 95.7877 411.741 95.2565 410.644 94.745C411.619 95.4156 412.655 96.0066 413.751 96.5181C414.848 97.0297 415.833 97.6703 416.707 98.44L415.911 99.8742L416.361 100.029L416.172 100.868C415.945 101.527 415.588 102.174 415.101 102.81C414.695 103.407 414.258 103.994 413.792 104.57C413.476 104.126 413.04 103.641 412.485 103.115C411.95 102.529 411.443 102.153 410.963 101.989C410.784 101.927 410.554 101.914 410.273 101.952C410.013 101.929 409.812 101.927 409.672 101.946C410.391 102.193 411.108 102.541 411.825 102.988C412.601 103.457 413.105 104.133 413.337 105.016C413.174 105.295 412.851 105.552 412.368 105.788L411.386 104.847L411.726 103.859L410.825 103.85L409.391 103.055C408.811 102.989 408.418 103.155 408.214 103.554L408.36 104.006C408.921 103.931 409.442 103.976 409.921 104.141C409.981 104.162 410.03 104.213 410.07 104.293L410.159 104.324C409.6 104.198 409.129 104.204 408.747 104.34C408.365 104.477 407.852 104.702 407.208 105.016L406.462 104.558L406.13 104.645C405.754 104.18 405.368 103.746 404.972 103.341C404.575 102.937 404.189 102.503 403.813 102.038L404.175 101.861L403.552 101.044C403.193 100.92 402.724 100.726 402.146 100.459C401.628 100.214 401.09 99.9283 400.532 99.6024C400.055 99.2371 399.658 98.8327 399.342 98.3889C399.086 97.9658 399.051 97.4847 399.236 96.9458C399.484 96.2272 400.041 95.5818 400.908 95.0095C401.795 94.3773 402.782 93.8463 403.868 93.4163C405.013 93.007 406.148 92.7278 407.271 92.5787C408.394 92.4295 409.285 92.4683 409.944 92.6951L412.998 93.7467C413.596 93.9529 414.084 94.2882 414.46 94.7526C414.916 95.1777 415.444 95.4933 416.043 95.6995L416.792 95.8571L417.446 96.5846L417.35 97.1545ZM417.016 70.1124C417.466 69.1955 417.915 68.2786 418.365 67.3617C417.876 68.1981 417.407 69.0748 416.957 69.9917C416.549 70.7888 416.19 71.6365 415.881 72.5347C416.25 71.6571 416.628 70.8496 417.016 70.1124ZM410.878 104.571L410.937 104.692L410.878 104.571Z" fill="#DB4437" fill-opacity="0.81"/>
</g>
<defs>
<filter id="filter0_d" x="0.700001" y="31.76" width="394.444" height="80.52" filterUnits="userSpaceOnUse" color-interpolation-filters="sRGB">
<feFlood flood-opacity="0" result="BackgroundImageFix"/>
<feColorMatrix in="SourceAlpha" type="matrix" values="0 0 0 0 0 0 0 0 0 0 0 0 0 0 0 0 0 0 127 0"/>
<feOffset dx="2" dy="2"/>
<feGaussianBlur stdDeviation="2"/>
<feColorMatrix type="matrix" values="0 0 0 0 0 0 0 0 0 0 0 0 0 0 0 0 0 0 0.4 0"/>
<feBlend mode="normal" in2="BackgroundImageFix" result="effect1_dropShadow"/>
<feBlend mode="normal" in="SourceGraphic" in2="effect1_dropShadow" result="shape"/>
</filter>
<filter id="filter1_d" x="397.119" y="37.1447" width="38.9305" height="74.6431" filterUnits="userSpaceOnUse" color-interpolation-filters="sRGB">
<feFlood flood-opacity="0" result="BackgroundImageFix"/>
<feColorMatrix in="SourceAlpha" type="matrix" values="0 0 0 0 0 0 0 0 0 0 0 0 0 0 0 0 0 0 127 0"/>
<feOffset dx="2" dy="2"/>
<feGaussianBlur stdDeviation="2"/>
<feColorMatrix type="matrix" values="0 0 0 0 0 0 0 0 0 0 0 0 0 0 0 0 0 0 0.4 0"/>
<feBlend mode="normal" in2="BackgroundImageFix" result="effect1_dropShadow"/>
<feBlend mode="normal" in="SourceGraphic" in2="effect1_dropShadow" result="shape"/>
</filter>
</defs>
</svg>
